<?xml version="1.0" standalone="no"?>
<!DOCTYPE svg PUBLIC "-//W3C//DTD SVG 20010904//EN"
 "http://www.w3.org/TR/2001/REC-SVG-20010904/DTD/svg10.dtd">
<svg version="1.0" xmlns="http://www.w3.org/2000/svg"
 width="377.000000pt" height="377.000000pt" viewBox="0 0 377.000000 377.000000"
 preserveAspectRatio="xMidYMid meet">
<metadata>
Created by potrace 1.14, written by Peter Selinger 2001-2017
</metadata>
<g transform="translate(0.000000,377.000000) scale(0.100000,-0.100000)"
fill="#000000" stroke="none">
<path d="M600 3652 c-1 -64 -1 -911 -1 -1882 l-1 -1765 709 0 c632 0 792 4
874 21 13 2 40 7 59 10 69 10 166 37 245 67 331 126 550 351 638 658 32 108
39 164 42 326 4 182 -30 324 -107 456 -88 151 -253 302 -435 399 l-82 44 44
27 c63 40 195 172 242 242 120 179 165 350 159 600 -7 251 -74 422 -227 575
-169 168 -411 270 -774 325 -22 4 -343 8 -712 11 l-673 4 0 -118z m1205 -606
c185 -11 320 -86 380 -211 29 -60 36 -91 36 -172 0 -208 -126 -382 -308 -424
-38 -8 -411 -15 -550 -10 l-23 1 0 409 c0 263 4 411 10 413 15 5 351 1 455 -6z
m240 -1565 c110 -25 178 -56 242 -107 58 -47 80 -81 98 -150 28 -108 20 -196
-25 -290 -56 -115 -168 -189 -337 -223 -72 -15 -143 -18 -385 -19 l-297 -1 0
411 -1 410 303 -4 c269 -4 313 -7 402 -27z"/>
</g>
</svg>
